<svg
        xmlns="http://www.w3.org/2000/svg"
        xmlns:xlink="http://www.w3.org/1999/xlink"
        width="500"
        height="500"
        viewBox="0 0 375 375"
        preserveAspectRatio="xMidYMid meet"
        version="1.0"
>
    <path
            fill="#193cb8"
            stroke="#193cb8"  stroke-width="10"
    stroke-linejoin="round"
    d="M 10.503906 255.542969 C 31.097656 255.542969 51.6875 255.542969 72.28125 255.542969 C 75.808594 255.542969 78.699219 253.171875 79.726562 249.878906 C 92.597656 208.765625 105.464844 167.648438 118.339844 126.53125 C 113.375 126.53125 108.410156 126.53125 103.445312 126.53125 C 118.890625 169.363281 134.335938 212.191406 149.777344 255.019531 C 152.238281 261.84375 162.675781 262.886719 164.671875 255.019531 C 181.832031 187.351562 198.996094 119.679688 216.152344 52.007812 C 211.191406 52.007812 206.222656 52.007812 201.261719 52.007812 C 217.566406 144.519531 233.863281 237.03125 250.167969 329.546875 C 251.304688 336.007812 261.46875 337.1875 264.28125 331.386719 C 276.679688 305.816406 289.074219 280.238281 301.46875 254.660156 C 304.554688 248.300781 291.871094 255.542969 300.214844 255.542969 C 308.339844 255.542969 316.464844 255.542969 324.589844 255.542969 C 339.160156 255.542969 353.726562 255.542969 368.296875 255.542969 C 378.253906 255.542969 378.253906 240.125 368.296875 240.125 C 344.273438 240.125 320.25 240.125 296.222656 240.125 C 293.667969 240.125 290.714844 241.550781 289.558594 243.941406 C 276.6875 270.496094 263.816406 297.050781 250.949219 323.605469 C 255.652344 324.21875 260.355469 324.832031 265.058594 325.449219 C 248.753906 232.9375 232.457031 140.421875 216.152344 47.90625 C 214.792969 40.214844 203.050781 40.851562 201.261719 47.90625 C 184.101562 115.582031 166.9375 183.25 149.777344 250.925781 C 154.746094 250.925781 159.707031 250.925781 164.671875 250.925781 C 149.226562 208.089844 133.785156 165.261719 118.339844 122.429688 C 115.78125 115.335938 105.816406 114.855469 103.445312 122.429688 C 90.578125 163.550781 77.707031 204.667969 64.835938 245.785156 C 67.316406 243.898438 69.800781 242.011719 72.28125 240.125 C 51.6875 240.125 31.097656 240.125 10.503906 240.125 C 0.542969 240.125 0.542969 255.542969 10.503906 255.542969 Z" />
</svg>
