<svg xmlns="http://www.w3.org/2000/svg" xmlns:xlink="http://www.w3.org/1999/xlink" width="394" zoomAndPan="magnify" viewBox="0 0 295.5 60" height="80" preserveAspectRatio="xMidYMid meet" version="1.0"><defs><g/></defs><g fill="#ffffff" fill-opacity="1"><g transform="translate(6.036661, 43.851229)"><g><path d="M 30.09375 -21.25 L 30.09375 -4.984375 L 30.65625 -4.984375 C 31.207031 -4.984375 31.644531 -4.84375 31.96875 -4.5625 C 32.300781 -4.289062 32.46875 -3.867188 32.46875 -3.296875 L 32.46875 -1.65625 C 32.46875 -1.070312 32.300781 -0.648438 31.96875 -0.390625 C 31.644531 -0.128906 31.207031 0 30.65625 0 L 23.546875 0 C 23.015625 0 22.585938 -0.128906 22.265625 -0.390625 C 21.941406 -0.648438 21.78125 -1.070312 21.78125 -1.65625 L 21.78125 -3.296875 C 21.78125 -3.867188 21.941406 -4.289062 22.265625 -4.5625 C 22.585938 -4.84375 23.015625 -4.984375 23.546875 -4.984375 L 24.109375 -4.984375 L 24.109375 -20.6875 L 19.1875 -8.578125 C 18.863281 -7.828125 18.351562 -7.453125 17.65625 -7.453125 L 15.78125 -7.453125 C 15.03125 -7.453125 14.519531 -7.828125 14.25 -8.578125 L 9.296875 -20.796875 L 9.296875 -4.984375 L 9.890625 -4.984375 C 10.421875 -4.984375 10.847656 -4.84375 11.171875 -4.5625 C 11.492188 -4.289062 11.65625 -3.867188 11.65625 -3.296875 L 11.65625 -1.65625 C 11.65625 -1.070312 11.492188 -0.648438 11.171875 -0.390625 C 10.847656 -0.128906 10.421875 0 9.890625 0 L 3.71875 0 C 3.164062 0 2.722656 -0.128906 2.390625 -0.390625 C 2.066406 -0.648438 1.90625 -1.070312 1.90625 -1.65625 L 1.90625 -3.296875 C 1.90625 -3.867188 2.066406 -4.289062 2.390625 -4.5625 C 2.722656 -4.84375 3.164062 -4.984375 3.71875 -4.984375 L 4.265625 -4.984375 L 4.265625 -21.25 L 3.71875 -21.25 C 3.164062 -21.25 2.722656 -21.382812 2.390625 -21.65625 C 2.066406 -21.9375 1.90625 -22.363281 1.90625 -22.9375 L 1.90625 -24.59375 C 1.90625 -25.164062 2.066406 -25.582031 2.390625 -25.84375 C 2.722656 -26.101562 3.164062 -26.234375 3.71875 -26.234375 L 12 -26.234375 C 12.789062 -26.234375 13.328125 -25.859375 13.609375 -25.109375 L 17.25 -15.890625 L 20.921875 -25.109375 C 21.210938 -25.859375 21.75 -26.234375 22.53125 -26.234375 L 30.65625 -26.234375 C 31.207031 -26.234375 31.644531 -26.101562 31.96875 -25.84375 C 32.300781 -25.582031 32.46875 -25.164062 32.46875 -24.59375 L 32.46875 -22.9375 C 32.46875 -22.363281 32.300781 -21.9375 31.96875 -21.65625 C 31.644531 -21.382812 31.207031 -21.25 30.65625 -21.25 Z M 30.09375 -21.25 "/></g></g></g><g fill="#ffffff" fill-opacity="1"><g transform="translate(40.398283, 43.851229)"><g><path d="M 19.1875 -10.3125 C 19.1875 -9.488281 19.140625 -8.75 19.046875 -8.09375 L 7.578125 -8.09375 C 7.773438 -6.96875 8.207031 -6.085938 8.875 -5.453125 C 9.550781 -4.816406 10.425781 -4.5 11.5 -4.5 C 12.175781 -4.5 12.710938 -4.59375 13.109375 -4.78125 C 13.515625 -4.96875 13.957031 -5.273438 14.4375 -5.703125 C 15.007812 -6.222656 15.582031 -6.484375 16.15625 -6.484375 C 16.78125 -6.484375 17.3125 -6.3125 17.75 -5.96875 C 18.1875 -5.632812 18.40625 -5.144531 18.40625 -4.5 C 18.40625 -3.769531 18.179688 -3.117188 17.734375 -2.546875 C 17.109375 -1.703125 16.242188 -1.003906 15.140625 -0.453125 C 14.046875 0.0976562 12.734375 0.375 11.203125 0.375 C 9.179688 0.375 7.429688 -0.03125 5.953125 -0.84375 C 4.484375 -1.65625 3.359375 -2.800781 2.578125 -4.28125 C 1.804688 -5.769531 1.421875 -7.492188 1.421875 -9.453125 C 1.421875 -11.441406 1.8125 -13.160156 2.59375 -14.609375 C 3.382812 -16.066406 4.484375 -17.179688 5.890625 -17.953125 C 7.304688 -18.722656 8.941406 -19.109375 10.796875 -19.109375 C 12.316406 -19.109375 13.710938 -18.785156 14.984375 -18.140625 C 16.265625 -17.492188 17.285156 -16.503906 18.046875 -15.171875 C 18.804688 -13.847656 19.1875 -12.226562 19.1875 -10.3125 Z M 10.609375 -14.6875 C 8.984375 -14.6875 7.984375 -13.675781 7.609375 -11.65625 L 13.125 -11.65625 C 13.144531 -11.800781 13.15625 -12.015625 13.15625 -12.296875 C 13.15625 -13.066406 12.921875 -13.65625 12.453125 -14.0625 C 11.992188 -14.476562 11.378906 -14.6875 10.609375 -14.6875 Z M 10.609375 -14.6875 "/></g></g></g><g fill="#ffffff" fill-opacity="1"><g transform="translate(61.082708, 43.851229)"><g><path d="M 21.03125 -4.984375 C 21.582031 -4.984375 22.019531 -4.84375 22.34375 -4.5625 C 22.664062 -4.289062 22.828125 -3.867188 22.828125 -3.296875 L 22.828125 -1.65625 C 22.828125 -1.070312 22.664062 -0.648438 22.34375 -0.390625 C 22.019531 -0.128906 21.582031 0 21.03125 0 L 16.421875 0 C 15.867188 0 15.414062 -0.171875 15.0625 -0.515625 C 14.71875 -0.867188 14.546875 -1.320312 14.546875 -1.875 L 14.546875 -3.375 C 14.066406 -2.25 13.304688 -1.34375 12.265625 -0.65625 C 11.234375 0.03125 10.09375 0.375 8.84375 0.375 C 6.625 0.375 4.859375 -0.453125 3.546875 -2.109375 C 2.234375 -3.773438 1.578125 -6.046875 1.578125 -8.921875 C 1.578125 -12.171875 2.3125 -14.679688 3.78125 -16.453125 C 5.257812 -18.222656 7.347656 -19.109375 10.046875 -19.109375 C 11.890625 -19.109375 13.390625 -18.460938 14.546875 -17.171875 L 14.546875 -22.75 L 13.984375 -22.75 C 13.429688 -22.75 12.992188 -22.882812 12.671875 -23.15625 C 12.347656 -23.4375 12.1875 -23.863281 12.1875 -24.4375 L 12.1875 -26.09375 C 12.1875 -26.664062 12.347656 -27.082031 12.671875 -27.34375 C 12.992188 -27.601562 13.429688 -27.734375 13.984375 -27.734375 L 18.625 -27.734375 C 19.15625 -27.734375 19.59375 -27.554688 19.9375 -27.203125 C 20.289062 -26.859375 20.46875 -26.410156 20.46875 -25.859375 L 20.46875 -4.984375 Z M 10.796875 -4.5 C 11.847656 -4.5 12.734375 -4.984375 13.453125 -5.953125 C 14.179688 -6.929688 14.546875 -8.132812 14.546875 -9.5625 L 14.546875 -12.8125 C 14.117188 -13.269531 13.59375 -13.625 12.96875 -13.875 C 12.34375 -14.125 11.691406 -14.25 11.015625 -14.25 C 9.941406 -14.25 9.101562 -13.796875 8.5 -12.890625 C 7.90625 -11.992188 7.609375 -10.734375 7.609375 -9.109375 C 7.609375 -7.628906 7.890625 -6.488281 8.453125 -5.6875 C 9.015625 -4.894531 9.796875 -4.5 10.796875 -4.5 Z M 10.796875 -4.5 "/></g></g></g><g fill="#193cb8" fill-opacity="1"><g transform="translate(84.887613, 43.851229)"><g><path d="M 17.46875 -26.234375 C 18.019531 -26.234375 18.457031 -26.101562 18.78125 -25.84375 C 19.101562 -25.582031 19.265625 -25.164062 19.265625 -24.59375 L 19.265625 -22.9375 C 19.265625 -22.363281 19.101562 -21.9375 18.78125 -21.65625 C 18.457031 -21.382812 18.019531 -21.25 17.46875 -21.25 L 16.90625 -21.25 L 16.90625 -7.6875 C 16.90625 -5.238281 16.164062 -3.28125 14.6875 -1.8125 C 13.21875 -0.351562 11.257812 0.375 8.8125 0.375 C 6.53125 0.375 4.695312 -0.160156 3.3125 -1.234375 C 1.925781 -2.304688 1.234375 -3.734375 1.234375 -5.515625 C 1.234375 -6.640625 1.5625 -7.546875 2.21875 -8.234375 C 2.882812 -8.921875 3.742188 -9.265625 4.796875 -9.265625 C 5.867188 -9.265625 6.726562 -8.972656 7.375 -8.390625 C 8.03125 -7.816406 8.359375 -7.046875 8.359375 -6.078125 C 8.359375 -5.617188 8.285156 -5.179688 8.140625 -4.765625 C 8.335938 -4.660156 8.609375 -4.609375 8.953125 -4.609375 C 9.578125 -4.609375 10.054688 -4.820312 10.390625 -5.25 C 10.734375 -5.675781 10.90625 -6.273438 10.90625 -7.046875 L 10.90625 -21.25 L 8.84375 -21.25 C 8.320312 -21.25 7.894531 -21.382812 7.5625 -21.65625 C 7.238281 -21.9375 7.078125 -22.363281 7.078125 -22.9375 L 7.078125 -24.59375 C 7.078125 -25.164062 7.238281 -25.582031 7.5625 -25.84375 C 7.894531 -26.101562 8.320312 -26.234375 8.84375 -26.234375 Z M 17.46875 -26.234375 "/></g></g></g><g fill="#193cb8" fill-opacity="1"><g transform="translate(105.497092, 43.851229)"><g><path d="M 10.828125 0.375 C 7.859375 0.375 5.554688 -0.453125 3.921875 -2.109375 C 2.285156 -3.773438 1.46875 -6.117188 1.46875 -9.140625 C 1.46875 -12.265625 2.328125 -14.707031 4.046875 -16.46875 C 5.773438 -18.226562 8.160156 -19.109375 11.203125 -19.109375 C 14.179688 -19.109375 16.484375 -18.273438 18.109375 -16.609375 C 19.734375 -14.953125 20.546875 -12.628906 20.546875 -9.640625 C 20.546875 -6.515625 19.679688 -4.0625 17.953125 -2.28125 C 16.234375 -0.507812 13.859375 0.375 10.828125 0.375 Z M 10.875 -4.5 C 12.125 -4.5 13.039062 -4.90625 13.625 -5.71875 C 14.207031 -6.53125 14.5 -7.8125 14.5 -9.5625 C 14.5 -11.15625 14.222656 -12.332031 13.671875 -13.09375 C 13.128906 -13.863281 12.285156 -14.25 11.140625 -14.25 C 9.960938 -14.25 9.0625 -13.820312 8.4375 -12.96875 C 7.8125 -12.113281 7.5 -10.863281 7.5 -9.21875 C 7.5 -7.664062 7.785156 -6.488281 8.359375 -5.6875 C 8.929688 -4.894531 9.769531 -4.5 10.875 -4.5 Z M 10.875 -4.5 "/></g></g></g><g fill="#193cb8" fill-opacity="1"><g transform="translate(127.493034, 43.851229)"><g><path d="M 21.328125 -4.984375 C 21.878906 -4.984375 22.316406 -4.84375 22.640625 -4.5625 C 22.960938 -4.289062 23.125 -3.867188 23.125 -3.296875 L 23.125 -1.65625 C 23.125 -1.070312 22.960938 -0.648438 22.640625 -0.390625 C 22.316406 -0.128906 21.878906 0 21.328125 0 L 16.71875 0 C 16.164062 0 15.710938 -0.171875 15.359375 -0.515625 C 15.015625 -0.867188 14.84375 -1.320312 14.84375 -1.875 L 14.84375 -3.5625 C 14.34375 -2.382812 13.609375 -1.429688 12.640625 -0.703125 C 11.679688 0.015625 10.664062 0.375 9.59375 0.375 C 7.570312 0.375 6.003906 -0.273438 4.890625 -1.578125 C 3.773438 -2.878906 3.21875 -4.703125 3.21875 -7.046875 L 3.21875 -13.75 L 2.625 -13.75 C 2.101562 -13.75 1.675781 -13.882812 1.34375 -14.15625 C 1.019531 -14.4375 0.859375 -14.863281 0.859375 -15.4375 L 0.859375 -17.09375 C 0.859375 -17.664062 1.019531 -18.082031 1.34375 -18.34375 C 1.675781 -18.613281 2.101562 -18.75 2.625 -18.75 L 7.265625 -18.75 C 7.796875 -18.75 8.238281 -18.570312 8.59375 -18.21875 C 8.957031 -17.863281 9.140625 -17.414062 9.140625 -16.875 L 9.140625 -8.84375 C 9.140625 -7.195312 9.296875 -6.0625 9.609375 -5.4375 C 9.921875 -4.8125 10.488281 -4.5 11.3125 -4.5 C 12.289062 -4.5 13.125 -4.921875 13.8125 -5.765625 C 14.5 -6.617188 14.84375 -7.632812 14.84375 -8.8125 L 14.84375 -13.75 L 14.28125 -13.75 C 13.726562 -13.75 13.289062 -13.882812 12.96875 -14.15625 C 12.644531 -14.4375 12.484375 -14.863281 12.484375 -15.4375 L 12.484375 -17.09375 C 12.484375 -17.664062 12.644531 -18.082031 12.96875 -18.34375 C 13.289062 -18.613281 13.726562 -18.75 14.28125 -18.75 L 18.921875 -18.75 C 19.453125 -18.75 19.890625 -18.570312 20.234375 -18.21875 C 20.585938 -17.863281 20.765625 -17.414062 20.765625 -16.875 L 20.765625 -4.984375 Z M 21.328125 -4.984375 "/></g></g></g><g fill="#193cb8" fill-opacity="1"><g transform="translate(151.549923, 43.851229)"><g><path d="M 15.1875 -19.109375 C 16.457031 -19.109375 17.425781 -18.753906 18.09375 -18.046875 C 18.769531 -17.335938 19.109375 -16.394531 19.109375 -15.21875 C 19.109375 -14.144531 18.773438 -13.265625 18.109375 -12.578125 C 17.453125 -11.890625 16.578125 -11.546875 15.484375 -11.546875 C 14.703125 -11.546875 14.03125 -11.769531 13.46875 -12.21875 C 12.90625 -12.664062 12.523438 -13.265625 12.328125 -14.015625 C 11.609375 -13.742188 11.015625 -13.210938 10.546875 -12.421875 C 10.085938 -11.640625 9.859375 -10.785156 9.859375 -9.859375 L 9.859375 -4.984375 L 11.09375 -4.984375 C 11.613281 -4.984375 12.035156 -4.84375 12.359375 -4.5625 C 12.691406 -4.289062 12.859375 -3.867188 12.859375 -3.296875 L 12.859375 -1.65625 C 12.859375 -1.070312 12.691406 -0.648438 12.359375 -0.390625 C 12.035156 -0.128906 11.613281 0 11.09375 0 L 3.375 0 C 2.851562 0 2.425781 -0.128906 2.09375 -0.390625 C 1.769531 -0.648438 1.609375 -1.070312 1.609375 -1.65625 L 1.609375 -3.296875 C 1.609375 -3.867188 1.769531 -4.289062 2.09375 -4.5625 C 2.425781 -4.84375 2.851562 -4.984375 3.375 -4.984375 L 3.9375 -4.984375 L 3.9375 -13.75 L 3.375 -13.75 C 2.851562 -13.75 2.425781 -13.882812 2.09375 -14.15625 C 1.769531 -14.4375 1.609375 -14.863281 1.609375 -15.4375 L 1.609375 -17.09375 C 1.609375 -17.664062 1.769531 -18.082031 2.09375 -18.34375 C 2.425781 -18.613281 2.851562 -18.75 3.375 -18.75 L 8.015625 -18.75 C 8.546875 -18.75 8.984375 -18.570312 9.328125 -18.21875 C 9.679688 -17.863281 9.859375 -17.414062 9.859375 -16.875 L 9.859375 -14.578125 C 10.285156 -15.953125 10.988281 -17.050781 11.96875 -17.875 C 12.957031 -18.695312 14.03125 -19.109375 15.1875 -19.109375 Z M 15.1875 -19.109375 "/></g></g></g><g fill="#193cb8" fill-opacity="1"><g transform="translate(171.409972, 43.851229)"><g><path d="M 22.296875 -4.984375 C 22.828125 -4.984375 23.253906 -4.84375 23.578125 -4.5625 C 23.898438 -4.289062 24.0625 -3.867188 24.0625 -3.296875 L 24.0625 -1.65625 C 24.0625 -1.070312 23.898438 -0.648438 23.578125 -0.390625 C 23.253906 -0.128906 22.828125 0 22.296875 0 L 15.5625 0 C 15.007812 0 14.566406 -0.128906 14.234375 -0.390625 C 13.910156 -0.648438 13.75 -1.070312 13.75 -1.65625 L 13.75 -3.296875 C 13.75 -3.867188 13.910156 -4.289062 14.234375 -4.5625 C 14.566406 -4.84375 15.007812 -4.984375 15.5625 -4.984375 L 15.8125 -4.984375 L 15.8125 -9.890625 C 15.8125 -11.515625 15.644531 -12.644531 15.3125 -13.28125 C 14.976562 -13.925781 14.375 -14.25 13.5 -14.25 C 12.519531 -14.25 11.664062 -13.816406 10.9375 -12.953125 C 10.21875 -12.085938 9.859375 -11.082031 9.859375 -9.9375 L 9.859375 -4.984375 L 10.125 -4.984375 C 10.644531 -4.984375 11.066406 -4.84375 11.390625 -4.5625 C 11.710938 -4.289062 11.875 -3.867188 11.875 -3.296875 L 11.875 -1.65625 C 11.875 -1.070312 11.710938 -0.648438 11.390625 -0.390625 C 11.066406 -0.128906 10.644531 0 10.125 0 L 3.375 0 C 2.851562 0 2.425781 -0.128906 2.09375 -0.390625 C 1.769531 -0.648438 1.609375 -1.070312 1.609375 -1.65625 L 1.609375 -3.296875 C 1.609375 -3.867188 1.769531 -4.289062 2.09375 -4.5625 C 2.425781 -4.84375 2.851562 -4.984375 3.375 -4.984375 L 3.9375 -4.984375 L 3.9375 -13.75 L 3.375 -13.75 C 2.851562 -13.75 2.425781 -13.882812 2.09375 -14.15625 C 1.769531 -14.4375 1.609375 -14.863281 1.609375 -15.4375 L 1.609375 -17.09375 C 1.609375 -17.664062 1.769531 -18.082031 2.09375 -18.34375 C 2.425781 -18.613281 2.851562 -18.75 3.375 -18.75 L 8.015625 -18.75 C 8.546875 -18.75 8.984375 -18.570312 9.328125 -18.21875 C 9.679688 -17.863281 9.859375 -17.414062 9.859375 -16.875 L 9.859375 -15.1875 C 10.335938 -16.332031 11.082031 -17.269531 12.09375 -18 C 13.101562 -18.738281 14.15625 -19.109375 15.25 -19.109375 C 17.300781 -19.109375 18.894531 -18.457031 20.03125 -17.15625 C 21.164062 -15.863281 21.734375 -14.039062 21.734375 -11.6875 L 21.734375 -4.984375 Z M 22.296875 -4.984375 "/></g></g></g><g fill="#193cb8" fill-opacity="1"><g transform="translate(196.32871, 43.851229)"><g><path d="M 19.1875 -10.3125 C 19.1875 -9.488281 19.140625 -8.75 19.046875 -8.09375 L 7.578125 -8.09375 C 7.773438 -6.96875 8.207031 -6.085938 8.875 -5.453125 C 9.550781 -4.816406 10.425781 -4.5 11.5 -4.5 C 12.175781 -4.5 12.710938 -4.59375 13.109375 -4.78125 C 13.515625 -4.96875 13.957031 -5.273438 14.4375 -5.703125 C 15.007812 -6.222656 15.582031 -6.484375 16.15625 -6.484375 C 16.78125 -6.484375 17.3125 -6.3125 17.75 -5.96875 C 18.1875 -5.632812 18.40625 -5.144531 18.40625 -4.5 C 18.40625 -3.769531 18.179688 -3.117188 17.734375 -2.546875 C 17.109375 -1.703125 16.242188 -1.003906 15.140625 -0.453125 C 14.046875 0.0976562 12.734375 0.375 11.203125 0.375 C 9.179688 0.375 7.429688 -0.03125 5.953125 -0.84375 C 4.484375 -1.65625 3.359375 -2.800781 2.578125 -4.28125 C 1.804688 -5.769531 1.421875 -7.492188 1.421875 -9.453125 C 1.421875 -11.441406 1.8125 -13.160156 2.59375 -14.609375 C 3.382812 -16.066406 4.484375 -17.179688 5.890625 -17.953125 C 7.304688 -18.722656 8.941406 -19.109375 10.796875 -19.109375 C 12.316406 -19.109375 13.710938 -18.785156 14.984375 -18.140625 C 16.265625 -17.492188 17.285156 -16.503906 18.046875 -15.171875 C 18.804688 -13.847656 19.1875 -12.226562 19.1875 -10.3125 Z M 10.609375 -14.6875 C 8.984375 -14.6875 7.984375 -13.675781 7.609375 -11.65625 L 13.125 -11.65625 C 13.144531 -11.800781 13.15625 -12.015625 13.15625 -12.296875 C 13.15625 -13.066406 12.921875 -13.65625 12.453125 -14.0625 C 11.992188 -14.476562 11.378906 -14.6875 10.609375 -14.6875 Z M 10.609375 -14.6875 "/></g></g></g><g fill="#193cb8" fill-opacity="1"><g transform="translate(217.013135, 43.851229)"><g><path d="M 20.609375 -18.75 C 21.160156 -18.75 21.597656 -18.613281 21.921875 -18.34375 C 22.253906 -18.082031 22.421875 -17.664062 22.421875 -17.09375 L 22.421875 -15.4375 C 22.421875 -14.863281 22.253906 -14.4375 21.921875 -14.15625 C 21.597656 -13.882812 21.160156 -13.75 20.609375 -13.75 L 20.046875 -13.75 L 13.15625 1.234375 C 12.257812 3.234375 11.414062 4.789062 10.625 5.90625 C 9.84375 7.019531 9.035156 7.8125 8.203125 8.28125 C 7.378906 8.757812 6.421875 9 5.328125 9 C 4.046875 9 2.988281 8.660156 2.15625 7.984375 C 1.320312 7.304688 0.90625 6.441406 0.90625 5.390625 C 0.90625 4.546875 1.191406 3.851562 1.765625 3.3125 C 2.335938 2.78125 3.070312 2.515625 3.96875 2.515625 C 4.519531 2.515625 5.019531 2.628906 5.46875 2.859375 C 5.914062 3.097656 6.28125 3.421875 6.5625 3.828125 C 6.9375 3.328125 7.4375 2.414062 8.0625 1.09375 L 8.953125 -0.859375 L 3 -13.75 L 2.4375 -13.75 C 1.882812 -13.75 1.445312 -13.882812 1.125 -14.15625 C 0.800781 -14.4375 0.640625 -14.863281 0.640625 -15.4375 L 0.640625 -17.09375 C 0.640625 -17.664062 0.800781 -18.082031 1.125 -18.34375 C 1.445312 -18.613281 1.882812 -18.75 2.4375 -18.75 L 8.8125 -18.75 C 9.332031 -18.75 9.753906 -18.613281 10.078125 -18.34375 C 10.410156 -18.082031 10.578125 -17.664062 10.578125 -17.09375 L 10.578125 -15.4375 C 10.578125 -14.46875 10.140625 -13.921875 9.265625 -13.796875 L 12.03125 -7.34375 L 14.765625 -13.75 C 13.617188 -13.800781 13.046875 -14.363281 13.046875 -15.4375 L 13.046875 -17.09375 C 13.046875 -17.664062 13.207031 -18.082031 13.53125 -18.34375 C 13.851562 -18.613281 14.289062 -18.75 14.84375 -18.75 Z M 20.609375 -18.75 "/></g></g></g><g fill="#ffffff" fill-opacity="1"><g transform="translate(240.062543, 43.851229)"><g><path d="M 11.171875 -3.53125 C 11.171875 -4.675781 10.789062 -5.601562 10.03125 -6.3125 C 9.269531 -7.03125 8.300781 -7.390625 7.125 -7.390625 C 5.945312 -7.390625 4.96875 -7.03125 4.1875 -6.3125 C 3.414062 -5.601562 3.03125 -4.675781 3.03125 -3.53125 C 3.03125 -2.375 3.414062 -1.429688 4.1875 -0.703125 C 4.96875 0.015625 5.945312 0.375 7.125 0.375 C 8.300781 0.375 9.269531 0.015625 10.03125 -0.703125 C 10.789062 -1.429688 11.171875 -2.375 11.171875 -3.53125 Z M 11.171875 -3.53125 "/></g></g></g><g fill="#ffffff" fill-opacity="1"><g transform="translate(254.301827, 43.851229)"><g><path d="M 18.890625 -4.984375 C 19.410156 -4.984375 19.835938 -4.84375 20.171875 -4.5625 C 20.515625 -4.289062 20.6875 -3.867188 20.6875 -3.296875 L 20.6875 -1.65625 C 20.6875 -1.070312 20.515625 -0.648438 20.171875 -0.390625 C 19.835938 -0.128906 19.410156 0 18.890625 0 L 14.25 0 C 13.71875 0 13.273438 -0.171875 12.921875 -0.515625 C 12.578125 -0.867188 12.40625 -1.320312 12.40625 -1.875 L 12.40625 -3.484375 C 11.90625 -2.335938 11.164062 -1.40625 10.1875 -0.6875 C 9.21875 0.0195312 8.195312 0.375 7.125 0.375 C 5.425781 0.375 4.050781 -0.132812 3 -1.15625 C 1.945312 -2.1875 1.421875 -3.535156 1.421875 -5.203125 C 1.421875 -7.160156 2.03125 -8.585938 3.25 -9.484375 C 4.476562 -10.378906 6.394531 -10.828125 9 -10.828125 C 10 -10.828125 11.132812 -10.726562 12.40625 -10.53125 L 12.40625 -11.8125 C 12.40625 -12.6875 12.15625 -13.375 11.65625 -13.875 C 11.15625 -14.375 10.484375 -14.625 9.640625 -14.625 C 9.160156 -14.625 8.742188 -14.535156 8.390625 -14.359375 C 8.265625 -13.628906 7.921875 -13.03125 7.359375 -12.5625 C 6.796875 -12.101562 6.128906 -11.875 5.359375 -11.875 C 4.429688 -11.875 3.679688 -12.144531 3.109375 -12.6875 C 2.535156 -13.226562 2.25 -13.921875 2.25 -14.765625 C 2.25 -16.117188 2.921875 -17.179688 4.265625 -17.953125 C 5.617188 -18.722656 7.382812 -19.109375 9.5625 -19.109375 C 12.457031 -19.109375 14.640625 -18.390625 16.109375 -16.953125 C 17.585938 -15.523438 18.328125 -13.5 18.328125 -10.875 L 18.328125 -4.984375 Z M 9.03125 -3.859375 C 9.882812 -3.859375 10.628906 -4.226562 11.265625 -4.96875 C 11.898438 -5.707031 12.269531 -6.597656 12.375 -7.640625 C 11.46875 -7.742188 10.640625 -7.796875 9.890625 -7.796875 C 8.972656 -7.796875 8.316406 -7.625 7.921875 -7.28125 C 7.535156 -6.945312 7.34375 -6.378906 7.34375 -5.578125 C 7.34375 -5.078125 7.503906 -4.664062 7.828125 -4.34375 C 8.160156 -4.019531 8.5625 -3.859375 9.03125 -3.859375 Z M 9.03125 -3.859375 "/></g></g></g><g fill="#ffffff" fill-opacity="1"><g transform="translate(275.810629, 43.851229)"><g><path d="M 6.21875 -21.4375 C 5.164062 -21.4375 4.285156 -21.789062 3.578125 -22.5 C 2.867188 -23.21875 2.515625 -24.101562 2.515625 -25.15625 C 2.515625 -26.195312 2.867188 -27.070312 3.578125 -27.78125 C 4.285156 -28.5 5.164062 -28.859375 6.21875 -28.859375 C 7.269531 -28.859375 8.148438 -28.5 8.859375 -27.78125 C 9.578125 -27.070312 9.9375 -26.195312 9.9375 -25.15625 C 9.9375 -24.101562 9.578125 -23.21875 8.859375 -22.5 C 8.148438 -21.789062 7.269531 -21.4375 6.21875 -21.4375 Z M 3.375 0 C 2.851562 0 2.425781 -0.128906 2.09375 -0.390625 C 1.769531 -0.648438 1.609375 -1.070312 1.609375 -1.65625 L 1.609375 -3.296875 C 1.609375 -3.867188 1.769531 -4.289062 2.09375 -4.5625 C 2.425781 -4.84375 2.851562 -4.984375 3.375 -4.984375 L 3.9375 -4.984375 L 3.9375 -13.75 L 3.375 -13.75 C 2.851562 -13.75 2.425781 -13.882812 2.09375 -14.15625 C 1.769531 -14.4375 1.609375 -14.863281 1.609375 -15.4375 L 1.609375 -17.09375 C 1.609375 -17.664062 1.769531 -18.082031 2.09375 -18.34375 C 2.425781 -18.613281 2.851562 -18.75 3.375 -18.75 L 8.015625 -18.75 C 8.546875 -18.75 8.984375 -18.570312 9.328125 -18.21875 C 9.679688 -17.863281 9.859375 -17.414062 9.859375 -16.875 L 9.859375 -4.984375 L 10.421875 -4.984375 C 10.972656 -4.984375 11.410156 -4.84375 11.734375 -4.5625 C 12.054688 -4.289062 12.21875 -3.867188 12.21875 -3.296875 L 12.21875 -1.65625 C 12.21875 -1.070312 12.054688 -0.648438 11.734375 -0.390625 C 11.410156 -0.128906 10.972656 0 10.421875 0 Z M 3.375 0 "/></g></g></g></svg>